<svg xmlns="http://www.w3.org/2000/svg" viewBox="0 0 24 24" fill="none" stroke="currentColor" stroke-width="2" stroke-linecap="round" stroke-linejoin="round"><path d="M7 3h7l5 5v11a2 2 0 0 1-2 2H7a2 2 0 0 1-2-2V5a2 2 0 0 1 2-2z"/><path d="M14 3v5h5"/><path d="M10 8c-2 0-3 2-3 4s1 4 3 4"/><path d="M14 8c2 0 3 2 3 4s-1 4-3 4"/><rect x="4" y="16.5" width="16" height="3.5" rx="1"/><text x="12" y="19" text-anchor="middle" font-size="7" font-family="monospace" stroke="none" fill="currentColor">JSON</text></svg>