<svg xmlns="http://www.w3.org/2000/svg" viewBox="0 0 24 24" fill="none" stroke="currentColor" stroke-width="2" stroke-linecap="round" stroke-linejoin="round"><circle cx="12" cy="12" r="3"/><path d="M19.4 15a1 1 0 0 0 .2-1l-.5-1a1 1 0 0 1 .1-.9l.7-1.2a1 1 0 0 0-.2-1.2l-1.2-1.2a1 1 0 0 0-1.2-.2l-1.2.7a1 1 0 0 1-.9-.1l-1-.5a1 1 0 0 0-1 0l-1 .5a1 1 0 0 1-.9.1l-1.2-.7a1 1 0 0 0-1.2.2L4.4 8.7a1 1 0 0 0-.2 1.2l.7 1.2a1 1 0 0 1 .1.9l-.5 1a1 1 0 0 0 .2 1l.5 1a1 1 0 0 1-.1.9l-.7 1.2a1 1 0 0 0 .2 1.2l1.2 1.2a1 1 0 0 0 1.2.2l1.2-.7a1 1 0 0 1 .9.1l1 .5a1 1 0 0 0 1 0l1-.5a1 1 0 0 1 .9-.1l1.2.7a1 1 0 0 0 1.2-.2l1.2-1.2a1 1 0 0 0 .2-1.2l-.7-1.2a1 1 0 0 1 .1-.9z"/></svg>